<svg width="32" height="32" viewBox="0 0 32 32" fill="none" xmlns="http://www.w3.org/2000/svg">
<path fill-rule="evenodd" clip-rule="evenodd" d="M16.7067 22.7062C16.6138 22.7993 16.5035 22.8732 16.382 22.9236C16.2605 22.9741 16.1303 23 15.9987 23C15.8672 23 15.737 22.9741 15.6155 22.9236C15.494 22.8732 15.3836 22.7993 15.2907 22.7062L3.29074 10.7062C3.10297 10.5184 2.99748 10.2638 2.99748 9.99822C2.99748 9.73266 3.10297 9.47799 3.29074 9.29022C3.47851 9.10244 3.73319 8.99695 3.99874 8.99695C4.26429 8.99695 4.51897 9.10244 4.70674 9.29022L15.9987 20.5842L27.2907 9.29022C27.4785 9.10244 27.7332 8.99696 27.9987 8.99696C28.2643 8.99696 28.519 9.10244 28.7067 9.29022C28.8945 9.47799 29 9.73267 29 9.99822C29 10.2638 28.8945 10.5184 28.7067 10.7062L16.7067 22.7062Z" fill="black"/>
</svg>
