<svg width="500" height="85" viewBox="0 0 500 85" fill="none" xmlns="http://www.w3.org/2000/svg">
<path d="M39.588 37.4529L30.3702 7.66313V37.4529H24.1583V0.65974H34.0273L42.8443 29.9928L51.6113 0.65974H61.4803V37.4529H55.2683V7.66313L46.0505 37.4529H39.588Z" fill="black"/>
<path d="M77.6428 0.65974H84.3557L97.982 37.4529H91.0186L88.1631 29.2823H73.4346L70.6292 37.4529H64.1166L77.6428 0.65974ZM75.2882 23.9029H86.2594L80.7487 8.11987L75.2882 23.9029Z" fill="black"/>
<path d="M106.988 37.4529H100.626V0.65974H106.988V37.4529Z" fill="black"/>
<path d="M122.44 20.7564C116.729 19.5892 111.97 16.595 111.97 10.3528C111.97 3.45095 119.034 0 125.696 0C132.86 0 138.471 3.2987 139.924 10.9618H133.762C132.71 6.54665 128.903 5.27792 125.346 5.27792C122.54 5.27792 118.382 6.54665 118.382 10.1498C118.382 12.9918 120.687 14.4128 123.793 15.0218L128.251 15.8845C134.614 17.1532 140.675 19.4877 140.675 26.8971C140.675 34.3065 133.411 38.1126 126.248 38.1126C117.631 38.1126 111.719 33.3422 110.968 25.2731H117.23C118.332 30.2973 121.538 32.8347 126.548 32.8347C130.856 32.8347 134.313 30.8555 134.313 27.3031C134.313 23.5476 130.305 22.2789 126.849 21.6192L122.44 20.7564Z" fill="black"/>
<path d="M160.882 38.1126C150.211 38.1126 143.548 30.348 143.548 19.0309C143.548 7.71388 150.211 0 160.882 0C171.552 0 178.215 7.71388 178.215 19.0309C178.215 30.348 171.552 38.1126 160.882 38.1126ZM160.882 32.8347C166.893 32.8347 171.652 27.9628 171.652 19.0309C171.652 10.0991 166.893 5.27792 160.882 5.27792C154.87 5.27792 150.111 10.0991 150.111 19.0309C150.111 27.9628 154.87 32.8347 160.882 32.8347Z" fill="black"/>
<path d="M204.63 37.4529L189.25 8.06912V37.4529H183.088V0.65974H191.605L206.984 30.0435V0.65974H213.146V37.4529H204.63Z" fill="black"/>
<path d="M241.98 0.65974C249.945 0.65974 257.41 1.97922 257.41 12.2306C257.41 21.5177 250.647 23.5476 242.08 23.5476H236.369V37.4529H230.007V0.65974H241.98ZM236.369 5.83616V18.2697H242.28C247.09 18.2697 250.797 17.5592 250.797 12.2813C250.797 6.2929 246.439 5.83616 241.98 5.83616H236.369Z" fill="black"/>
<path d="M263.378 0.65974L272.396 17.1025L281.664 0.65974H288.827L275.452 23.2431V37.4529H269.089V23.1416L256.114 0.65974H263.378Z" fill="black"/>
<path d="M305.639 21.9237C305.038 21.9744 304.386 21.9744 303.735 21.9744H297.573V37.4529H291.211V0.65974H302.783C313.504 0.65974 318.964 3.0957 318.964 11.2663C318.964 15.986 316.66 19.1832 312.151 20.7564L320.467 37.4529H313.303L305.639 21.9237ZM297.573 5.83616V16.8487H303.885C309.346 16.8487 312.452 15.7322 312.452 11.3171C312.452 6.4959 308.695 5.83616 303.685 5.83616H297.573Z" fill="black"/>
<path d="M334.079 0.65974H340.792L354.418 37.4529H347.455L344.6 29.2823H329.871L327.066 37.4529H320.553L334.079 0.65974ZM331.725 23.9029H342.696L337.185 8.11987L331.725 23.9029Z" fill="black"/>
<path d="M372.492 37.4529L363.275 7.66313V37.4529H357.063V0.65974H366.932L375.749 29.9928L384.516 0.65974H394.385V37.4529H388.173V7.66313L378.955 37.4529H372.492Z" fill="black"/>
<path d="M407.04 37.4529H400.678V0.65974H407.04V37.4529Z" fill="black"/>
<path d="M423.294 0.65974C434.816 0.65974 443.583 4.66892 443.583 19.0309C443.583 33.393 434.816 37.4529 423.294 37.4529H413.374V0.65974H423.294ZM422.993 5.83616H419.737V32.2765H422.993C429.956 32.2765 436.97 30.7033 436.97 19.0309C436.97 7.40938 429.956 5.83616 422.993 5.83616Z" fill="black"/>
<path d="M448.38 0.65974H474.079V6.03915H454.742V15.8845H473.027V21.2132H454.742V32.0227H474.079V37.4529H448.38V0.65974Z" fill="black"/>
<path d="M11.372 84.3373C7.81509 84.3373 5.00967 83.1194 3.0058 80.6326C1.00193 78.1967 0 75.101 0 71.2948C0 62.7182 3.45667 54.8521 9.51838 50.2339C12.5242 47.9502 15.8807 46.7829 19.5377 46.7829C23.9963 46.7829 27.6033 47.7472 30.4588 49.6756L26.0002 60.9927L25.5493 60.942C26.952 53.0251 24.4973 48.6099 18.135 48.6099C14.7785 48.6099 11.8228 50.2846 9.36808 53.5833C6.86325 56.9328 5.61083 61.348 5.61083 66.8289C5.61083 70.6351 6.46248 73.7308 8.21586 76.116C9.96924 78.5012 12.2737 79.7192 15.1793 79.6684C19.7381 79.6684 22.9944 77.1817 24.9983 72.259L25.4491 72.462C22.6938 80.3789 17.9847 84.3373 11.372 84.3373Z" fill="black"/>
<path d="M52.0716 72.9695L52.8732 78.0444C53.4743 81.2416 54.326 82.6626 56.3298 82.9164L56.2797 83.3224H48.2142C47.6631 82.0536 47.3124 80.1252 47.0619 77.4862L46.2604 71.0918C45.9598 69.1126 45.3587 67.6916 44.507 66.9304C43.6554 66.1691 41.9521 65.7631 39.4973 65.7631H38.4954L35.2391 78.0952C34.4376 81.3431 34.9385 82.6119 37.3432 82.9671L37.243 83.3224H25.0194L25.1196 82.9671C27.7747 82.5611 28.7766 81.7491 29.5782 78.5012L36.3913 52.6191C37.1929 49.5741 36.6919 48.5084 34.2372 48.1532L34.3374 47.7979H45.008C47.5629 47.7979 49.8674 48.2039 52.2219 49.3204C54.5764 50.4369 56.1294 52.7206 56.1294 55.7655C56.1294 61.2465 51.4705 65.2049 42.8538 65.2049L42.8037 65.4079C48.3645 65.4079 51.1198 67.8439 52.0716 72.9695ZM38.7459 64.8497H40.4492C47.2623 64.8497 50.3182 61.0942 50.3182 55.461C50.3182 51.0459 48.3645 48.8129 44.4569 48.8129H42.954L38.7459 64.8497Z" fill="black"/>
<path d="M80.9841 83.3224H57.138L57.2382 82.9671C60.1939 82.6119 61.246 81.7491 62.0976 78.5012L68.8607 52.6191C69.7123 49.5234 69.1612 48.5084 66.3558 48.1532L66.456 47.7979H88.8493L87.0959 59.2672H86.7452C86.8955 55.3596 86.5448 52.6191 85.593 51.0966C84.6411 49.5741 82.5371 48.8129 79.1806 48.8129H75.3732L71.2653 64.6467H75.0727C76.9262 64.6467 78.379 64.1392 79.381 63.1749C80.3829 62.2107 81.3848 60.4852 82.3367 57.9985H82.6373L78.8299 72.5128H78.5293C79.1806 67.5901 78.4291 65.6109 74.4715 65.6109H71.0148L66.6063 82.3074H70.7142C74.0707 82.3074 76.7759 81.4446 78.88 79.7192C80.934 77.9937 82.9378 74.7457 84.8415 70.0261H85.1421L80.9841 83.3224Z" fill="black"/>
<path d="M111.963 47.6457L113.917 78.0952C114.117 81.5969 114.718 82.6119 116.973 82.9671L116.872 83.3224H103.897L103.948 82.9671C107.204 82.5611 108.106 81.0894 107.955 77.2325L107.705 70.1276H96.0824L91.9243 77.3847C89.5698 81.5461 90.7721 82.6119 93.6777 82.9671L93.5775 83.3224H83.3578L83.458 82.9671C86.4638 82.6119 88.0669 81.1909 90.3212 77.2832L107.404 47.6457H111.963ZM106.953 51.0459L96.6835 69.0618H107.655L106.953 51.0459Z" fill="black"/>
<path d="M148.939 46.6814H149.19L145.733 59.7747H145.432C146.084 55.5625 146.033 52.6698 145.232 51.1981C144.43 49.7264 142.777 48.9652 140.272 48.9652H138.569L131.004 77.9937C130.053 81.6476 130.704 82.7134 134.461 82.9671L134.361 83.3224H119.182L119.282 82.9671C123.139 82.6119 124.542 81.5969 125.394 78.1459L133.008 48.9652H131.255C128.75 48.9652 126.696 49.7264 125.043 51.1981C123.39 52.7206 121.887 55.5625 120.434 59.7747H120.184L123.59 46.6814H123.841C124.291 47.4427 125.394 47.7979 127.147 47.7979H145.082C146.785 47.7979 148.087 47.4427 148.939 46.6814Z" fill="black"/>
<path d="M150.239 47.7979H163.264L163.164 48.1532C160.208 48.5084 159.106 49.4219 158.304 52.4669L151.541 78.2474C150.69 81.5461 151.191 82.6119 153.996 82.9671L153.946 83.3224H140.921L140.971 82.9671C144.027 82.5611 145.029 81.7491 145.88 78.5519L152.844 52.2131C153.495 49.4219 152.894 48.5084 150.139 48.1532L150.239 47.7979Z" fill="black"/>
<path d="M170.892 83.8298H170.692L167.235 53.2788C166.834 49.6249 166.283 48.4069 164.029 48.1532L164.129 47.7979H177.254L177.154 48.1532C173.898 48.3054 172.645 49.7771 172.996 53.2281L175.15 75.4562L188.175 54.3446C189.177 52.6698 189.678 51.3504 189.678 50.3354C189.678 49.0667 188.777 48.3054 186.923 48.1532L187.073 47.7979H196.592L196.491 48.1532C195.189 48.3054 194.087 48.8129 193.185 49.5741C192.233 50.3861 191.081 51.9086 189.678 54.1923L170.892 83.8298Z" fill="black"/>
<path d="M211.93 83.3224H188.084L188.184 82.9671C191.14 82.6119 192.192 81.7491 193.044 78.5012L199.807 52.6191C200.658 49.5234 200.107 48.5084 197.302 48.1532L197.402 47.7979H219.795L218.042 59.2672H217.691C217.842 55.3596 217.491 52.6191 216.539 51.0966C215.587 49.5741 213.483 48.8129 210.127 48.8129H206.319L202.211 64.6467H206.019C207.872 64.6467 209.325 64.1392 210.327 63.1749C211.329 62.2107 212.331 60.4852 213.283 57.9985H213.583L209.776 72.5128H209.475C210.127 67.5901 209.375 65.6109 205.418 65.6109H201.961L197.552 82.3074H201.66C205.017 82.3074 207.722 81.4446 209.826 79.7192C211.88 77.9937 213.884 74.7457 215.788 70.0261H216.088L211.93 83.3224Z" fill="black"/>
<path d="M231.363 46.5292H243.336C251.351 46.5292 258.766 47.7979 258.766 58.1C258.766 67.3871 252.002 69.4171 243.436 69.4171H237.725V83.3224H231.363V46.5292ZM243.336 51.7056H237.725V64.1392H243.636C248.446 64.1392 252.153 63.4287 252.153 58.1508C252.153 52.2131 247.794 51.7056 243.336 51.7056Z" fill="black"/>
<path d="M267.075 64.9004C267.075 73.883 271.834 78.7042 277.845 78.7042C283.857 78.7042 288.616 73.883 288.616 64.9004C288.616 55.9685 283.857 51.1474 277.845 51.1474C271.834 51.1474 267.075 55.9685 267.075 64.9004ZM295.179 64.9004C295.179 76.2175 288.516 83.9821 277.845 83.9821C267.175 83.9821 260.512 76.2175 260.512 64.9004C260.512 53.5326 267.175 45.8695 277.845 45.8695C288.516 45.8695 295.179 53.5326 295.179 64.9004Z" fill="black"/>
<path d="M322.145 83.3224L314.48 67.7931C313.879 67.8438 313.227 67.8439 312.576 67.8439H306.414V83.3224H300.052V46.5292H311.624C322.295 46.5292 327.805 48.9652 327.805 57.1358C327.805 61.8554 325.551 65.0526 320.992 66.6259L329.308 83.3224H322.145ZM312.526 51.7056H306.414V62.7182H312.726C318.187 62.7182 321.293 61.6017 321.293 57.1865C321.293 52.3654 317.536 51.7056 312.526 51.7056Z" fill="black"/>
<path d="M339.941 83.3224V51.9086H328.519V46.5292H357.726V51.9086H346.304V83.3224H339.941Z" fill="black"/>
<path d="M360.62 83.3224V46.5292H385.969V51.9086H366.982V61.754H384.867V67.0826H366.982V83.3224H360.62Z" fill="black"/>
<path d="M393.788 64.9004C393.788 73.883 398.547 78.7042 404.559 78.7042C410.57 78.7042 415.329 73.883 415.329 64.9004C415.329 55.9685 410.57 51.1474 404.559 51.1474C398.547 51.1474 393.788 55.9685 393.788 64.9004ZM421.892 64.9004C421.892 76.2175 415.229 83.9821 404.559 83.9821C393.888 83.9821 387.225 76.2175 387.225 64.9004C387.225 53.5326 393.888 45.8695 404.559 45.8695C415.229 45.8695 421.892 53.5326 421.892 64.9004Z" fill="black"/>
<path d="M433.128 46.5292V77.8922H451.413V83.3224H426.765V46.5292H433.128Z" fill="black"/>
<path d="M460.452 46.5292V83.3224H454.089V46.5292H460.452Z" fill="black"/>
<path d="M471.896 64.9004C471.896 73.883 476.655 78.7042 482.667 78.7042C488.678 78.7042 493.437 73.883 493.437 64.9004C493.437 55.9685 488.678 51.1474 482.667 51.1474C476.655 51.1474 471.896 55.9685 471.896 64.9004ZM500 64.9004C500 76.2175 493.337 83.9821 482.667 83.9821C471.996 83.9821 465.333 76.2175 465.333 64.9004C465.333 53.5326 471.996 45.8695 482.667 45.8695C493.337 45.8695 500 53.5326 500 64.9004Z" fill="black"/>
</svg>
